# xmcd
#
# Track frame offsets:
#	150
#	19087
#	39857
#	57220
#	67772
#	82322
#	100645
#	121672
#	142455
#	152487
#	167625
#	178912
#	191130
#	202790
#
# Disc length: 2922 seconds
#
# Revision: 1
# Processed by: cddbd v1.4PL0 Copyright (c) Steve Scherf et al.
# Submitted via: EasyCDDAExtractor 5.0.7
#
DISCID=b60b680e
DTITLE=Breeze Kings - You Got to Bring Some to Get Some
DYEAR=2003
DGENRE=Blues
TTITLE0=Hey Bartender
TTITLE1=Don't Put No Headstone on My Grave
TTITLE2=Up The Country
TTITLE3=Hidden Charms
TTITLE4=I Love the Life I Live
TTITLE5=Tell Me Again Baby
TTITLE6=Sorry That You Put Me Down
TTITLE7=Casanova Man
TTITLE8=Hello Little Bird
TTITLE9=Going To Decatur
TTITLE10=Mother In Law Blues
TTITLE11=How It Feel to Be Rich
TTITLE12=Cut You Down
TTITLE13=Pink Panther
EXTD=
EXTT0=
EXTT1=
EXTT2=
EXTT3=
EXTT4=
EXTT5=
EXTT6=
EXTT7=
EXTT8=
EXTT9=
EXTT10=
EXTT11=
EXTT12=
EXTT13=
PLAYORDER=
